<svg id="Calque_1" xmlns="http://www.w3.org/2000/svg" viewBox="0 0 176.7 164.8"><style>.st0{fill:none;stroke:#231f20;stroke-width:.25;stroke-miterlimit:10}.st1{fill:#00a99f}.st2{fill:#69345a}.st3{fill:#ee5b2f}.st4{fill:#008da7}.st5{fill:#ea148c}.st6{fill:#fff}</style><path class="st0" d="M-58.2-59.9h286.4v286.4H-58.2z"/><ellipse class="st1" cx="59.3" cy="134.1" rx="4.4" ry="4.3"/><ellipse class="st2" cx="72.2" cy="134.1" rx="4.4" ry="4.3"/><ellipse class="st3" cx="85.2" cy="134.1" rx="4.4" ry="4.3"/><ellipse class="st4" cx="98.1" cy="134.1" rx="4.4" ry="4.3"/><ellipse class="st5" cx="111" cy="134.1" rx="4.4" ry="4.3"/><g><path class="st6" d="M85.2 160.3c-31.1 0-58-18.4-70.5-44.8H9.8c12.8 29 41.8 49.3 75.4 49.3 33.7 0 62.7-20.3 75.4-49.3h-4.9c-12.5 26.4-39.4 44.8-70.5 44.8zM85.2 4.5c34.8 0 64.3 22.9 74.3 54.5h4.7C154 24.9 122.5 0 85.2 0s-68.8 24.9-79 58.9h4.7C20.8 27.4 50.4 4.5 85.2 4.5z"/><path class="st6" d="M61.6 37.3c0-8.9-6.5-8.2-6.5-8.2h-7.9v29.2h4.4V45.6h2.5L58 58.3h4.8l-4.7-13.6c1.8-1 3.5-3.1 3.5-7.4zm-9.9-4h2.4s2.9-.2 2.9 4.3-2.6 4.3-2.6 4.3h-2.6v-8.6zM148.4 106.3l-6.7-19.6c2.5-1.4 5-4.4 5-10.6 0-12.8-9.3-11.8-9.3-11.8h-11.3v42h6.4V88h3.6l5.3 18.3h7zm-16-36h3.4s4.1-.2 4.1 6.1-3.8 6.1-3.8 6.1h-3.8V70.3zM72.7 28.8c-7.3 0-7 7.3-7 7.3v16s.1 6.5 6.8 6.5 7.3-6.7 7.3-6.7V36.2s.2-7.4-7.1-7.4zm2.7 6.7v16.7s-.2 2.5-2.7 2.5-2.6-2.4-2.6-2.4V35.5s-.1-2.8 2.6-2.8c2.8 0 2.7 2.8 2.7 2.8zM91.2 28.8c-7.3 0-7 7.3-7 7.3v16s.1 6.5 6.8 6.5 7.3-6.7 7.3-6.7V36.2c-.1 0 .1-7.4-7.1-7.4zm2.6 6.7v16.7s-.2 2.5-2.7 2.5-2.5-2.4-2.5-2.4V35.5s-.1-2.8 2.6-2.8 2.6 2.8 2.6 2.8zM118.1 29.1h-.9l-4.5 17.3-4.8-17.3h-5.4v29.2h4.1v-19l4.7 14.5h2.4l4.4-13.5v18h4.1V29.1H119zM13.6 83c-7.2-5.6-6.7-5.4-6.7-9.4s3.2-4 3.2-4 3.4-.1 3.4 4.2l.1 3.1h6.5v-4.4s-.3-8.6-9.3-8.6S0 70.1 0 74.8c0 4.8 1.5 7.9 6.6 11.5 5.1 3.6 7 4.5 7 9.7 0 5.2-3.5 4.9-3.5 4.9s-3.3.7-3.3-4.6v-2.6H0V98s-.1 8.7 10.4 8.7 9.7-10.5 9.7-10.5v-3.8s.7-3.9-6.5-9.4zM164.4 83c-7.2-5.6-6.7-5.4-6.7-9.4s3.2-4 3.2-4 3.4-.1 3.4 4.2l.1 3.1h6.5v-4.4s-.3-8.6-9.3-8.6-10.8 6.2-10.8 10.9c0 4.8 1.5 7.9 6.6 11.5 5.2 3.6 7 4.5 7 9.7 0 5.2-3.5 4.9-3.5 4.9s-3.3.7-3.3-4.6v-2.6h-6.7V98s-.1 8.7 10.4 8.7 9.7-10.5 9.7-10.5v-3.8c-.1 0 .6-3.9-6.6-9.4zM30.9 64.3l-8.8 42h6.8l1.4-7.9h8.8l1.4 7.9h6.9l-8.6-42h-7.9zm.4 28.4l3.4-18.8 3.4 18.8h-6.8zM65.3 64.3l-5.9 32.3-5.8-32.3h-6.8l8.6 42h7.9l8.8-42h-.3zM78.5 64.3H76v42h18.1v-6.1H82.7V86.8h9v-6.1h-9V70.3h11.4v-6H82.7zM119.8 64.3h-6.7v31.3s.3 5.5-3.6 5.5-3.8-5.1-3.8-5.1V64.3H99v30.6s-.4 12 10.4 12c10.9 0 10.4-11.3 10.4-11.3V64.3zM49.9 118.4h126l.8-2.9H49.3z"/><path class="st6" d="M15.6 58.9C25.5 29.9 52.9 9 85.2 9s59.7 20.9 69.5 49.9h1.1C145.9 29.4 118 8 85.2 8 52.3 8 24.4 29.4 14.6 58.9h1zM150.7 115.5c-12.1 23.9-36.9 40.3-65.5 40.3s-53.4-16.4-65.5-40.3h-1.1c12.2 24.5 37.5 41.3 66.6 41.3 29.1 0 54.4-16.9 66.6-41.3h-1.1z"/></g></svg>